<svg width="180" height="180" viewBox="0 0 180 180" fill="none" xmlns="http://www.w3.org/2000/svg">
  <rect width="180" height="180" fill="#1a1a2e"/>
  <!-- Stars -->
  <circle cx="28" cy="22" r="1.5" fill="#fff" opacity="0.8"/>
  <circle cx="52" cy="14" r="1" fill="#fff" opacity="0.6"/>
  <circle cx="132" cy="18" r="1.5" fill="#fff" opacity="0.7"/>
  <circle cx="155" cy="32" r="1" fill="#fff" opacity="0.5"/>
  <circle cx="75" cy="28" r="1" fill="#fff" opacity="0.6"/>
  <!-- Empire State Building -->
  <rect x="80" y="48" width="20" height="85" rx="1" fill="#e2e8f0"/>
  <rect x="85" y="34" width="10" height="18" rx="1" fill="#cbd5e1"/>
  <rect x="88" y="20" width="4" height="17" fill="#f5d547"/>
  <circle cx="90" cy="17" r="3" fill="#f5d547" opacity="0.9"/>
  <!-- Windows -->
  <rect x="83" y="52" width="3" height="4" rx="0.5" fill="#f5d547" opacity="0.7"/>
  <rect x="89" y="52" width="3" height="4" rx="0.5" fill="#fbbf24" opacity="0.6"/>
  <rect x="95" y="52" width="3" height="4" rx="0.5" fill="#f5d547" opacity="0.8"/>
  <rect x="83" y="62" width="3" height="4" rx="0.5" fill="#fbbf24" opacity="0.5"/>
  <rect x="89" y="62" width="3" height="4" rx="0.5" fill="#f5d547" opacity="0.7"/>
  <rect x="95" y="62" width="3" height="4" rx="0.5" fill="#fbbf24" opacity="0.6"/>
  <rect x="83" y="72" width="3" height="4" rx="0.5" fill="#f5d547" opacity="0.6"/>
  <rect x="89" y="72" width="3" height="4" rx="0.5" fill="#fbbf24" opacity="0.8"/>
  <rect x="95" y="72" width="3" height="4" rx="0.5" fill="#f5d547" opacity="0.5"/>
  <!-- Left buildings -->
  <rect x="22" y="85" width="17" height="48" rx="1" fill="#94a3b8"/>
  <rect x="43" y="72" width="15" height="61" rx="1" fill="#a1a1aa"/>
  <rect x="62" y="80" width="14" height="53" rx="1" fill="#9ca3af"/>
  <!-- Right buildings -->
  <rect x="104" y="78" width="14" height="55" rx="1" fill="#9ca3af"/>
  <rect x="122" y="68" width="16" height="65" rx="1" fill="#a1a1aa"/>
  <rect x="142" y="84" width="16" height="49" rx="1" fill="#94a3b8"/>
  <!-- Windows -->
  <rect x="26" y="90" width="2.5" height="3" rx="0.5" fill="#f5d547" opacity="0.6"/>
  <rect x="31" y="90" width="2.5" height="3" rx="0.5" fill="#fbbf24" opacity="0.5"/>
  <rect x="47" y="77" width="2.5" height="3" rx="0.5" fill="#f5d547" opacity="0.5"/>
  <rect x="52" y="77" width="2.5" height="3" rx="0.5" fill="#fbbf24" opacity="0.7"/>
  <rect x="108" y="83" width="2.5" height="3" rx="0.5" fill="#f5d547" opacity="0.6"/>
  <rect x="126" y="73" width="2.5" height="3" rx="0.5" fill="#fbbf24" opacity="0.7"/>
  <rect x="132" y="73" width="2.5" height="3" rx="0.5" fill="#f5d547" opacity="0.4"/>
  <rect x="146" y="89" width="2.5" height="3" rx="0.5" fill="#f5d547" opacity="0.6"/>
  <!-- Ground -->
  <rect x="0" y="133" width="180" height="47" fill="#1e293b"/>
  <!-- NYC Text -->
  <text x="90" y="160" font-family="Arial,Helvetica,sans-serif" font-size="22" font-weight="bold" fill="#f5d547" text-anchor="middle" letter-spacing="5">NYC</text>
</svg>
