<svg width="512" height="512" viewBox="0 0 512 512" fill="none" xmlns="http://www.w3.org/2000/svg">
  <defs>
    <linearGradient id="bg512" x1="0" y1="0" x2="512" y2="512">
      <stop offset="0%" stop-color="#1a1a2e"/>
      <stop offset="100%" stop-color="#16213e"/>
    </linearGradient>
  </defs>
  <rect width="512" height="512" rx="108" fill="url(#bg512)"/>
  <!-- Stars -->
  <circle cx="80" cy="65" r="3" fill="#fff" opacity="0.8"/>
  <circle cx="145" cy="40" r="2.5" fill="#fff" opacity="0.6"/>
  <circle cx="370" cy="55" r="3" fill="#fff" opacity="0.7"/>
  <circle cx="440" cy="90" r="2.5" fill="#fff" opacity="0.5"/>
  <circle cx="210" cy="75" r="2.5" fill="#fff" opacity="0.6"/>
  <circle cx="310" cy="50" r="2" fill="#fff" opacity="0.5"/>
  <circle cx="50" cy="120" r="2" fill="#fff" opacity="0.4"/>
  <circle cx="460" cy="60" r="2" fill="#fff" opacity="0.6"/>
  <!-- NYC Skyline -->
  <!-- Empire State Building (center) -->
  <rect x="226" y="130" width="60" height="250" rx="2" fill="#e2e8f0"/>
  <rect x="242" y="90" width="28" height="50" rx="2" fill="#cbd5e1"/>
  <rect x="251" y="50" width="10" height="48" fill="#f5d547"/>
  <circle cx="256" cy="46" r="8" fill="#f5d547" opacity="0.9"/>
  <!-- Empire State windows -->
  <rect x="234" y="142" width="8" height="10" rx="1" fill="#f5d547" opacity="0.7"/>
  <rect x="252" y="142" width="8" height="10" rx="1" fill="#fbbf24" opacity="0.6"/>
  <rect x="270" y="142" width="8" height="10" rx="1" fill="#f5d547" opacity="0.8"/>
  <rect x="234" y="168" width="8" height="10" rx="1" fill="#fbbf24" opacity="0.5"/>
  <rect x="252" y="168" width="8" height="10" rx="1" fill="#f5d547" opacity="0.7"/>
  <rect x="270" y="168" width="8" height="10" rx="1" fill="#fbbf24" opacity="0.6"/>
  <rect x="234" y="194" width="8" height="10" rx="1" fill="#f5d547" opacity="0.6"/>
  <rect x="252" y="194" width="8" height="10" rx="1" fill="#fbbf24" opacity="0.8"/>
  <rect x="270" y="194" width="8" height="10" rx="1" fill="#f5d547" opacity="0.5"/>
  <rect x="234" y="220" width="8" height="10" rx="1" fill="#fbbf24" opacity="0.7"/>
  <rect x="252" y="220" width="8" height="10" rx="1" fill="#f5d547" opacity="0.6"/>
  <rect x="270" y="220" width="8" height="10" rx="1" fill="#fbbf24" opacity="0.5"/>
  <rect x="234" y="246" width="8" height="10" rx="1" fill="#f5d547" opacity="0.6"/>
  <rect x="252" y="246" width="8" height="10" rx="1" fill="#fbbf24" opacity="0.7"/>
  <rect x="270" y="246" width="8" height="10" rx="1" fill="#f5d547" opacity="0.5"/>
  <!-- Left tall building -->
  <rect x="60" y="230" width="50" height="150" rx="2" fill="#94a3b8"/>
  <rect x="70" y="240" width="7" height="8" rx="1" fill="#f5d547" opacity="0.6"/>
  <rect x="84" y="240" width="7" height="8" rx="1" fill="#fbbf24" opacity="0.5"/>
  <rect x="70" y="260" width="7" height="8" rx="1" fill="#fbbf24" opacity="0.7"/>
  <rect x="84" y="260" width="7" height="8" rx="1" fill="#f5d547" opacity="0.4"/>
  <rect x="70" y="280" width="7" height="8" rx="1" fill="#f5d547" opacity="0.5"/>
  <rect x="84" y="280" width="7" height="8" rx="1" fill="#fbbf24" opacity="0.6"/>
  <!-- Second left building -->
  <rect x="120" y="195" width="45" height="185" rx="2" fill="#a1a1aa"/>
  <rect x="130" y="205" width="7" height="8" rx="1" fill="#f5d547" opacity="0.5"/>
  <rect x="146" y="205" width="7" height="8" rx="1" fill="#fbbf24" opacity="0.7"/>
  <rect x="130" y="225" width="7" height="8" rx="1" fill="#fbbf24" opacity="0.4"/>
  <rect x="146" y="225" width="7" height="8" rx="1" fill="#f5d547" opacity="0.6"/>
  <rect x="130" y="245" width="7" height="8" rx="1" fill="#f5d547" opacity="0.7"/>
  <rect x="146" y="245" width="7" height="8" rx="1" fill="#fbbf24" opacity="0.5"/>
  <!-- Third left building -->
  <rect x="174" y="220" width="44" height="160" rx="2" fill="#9ca3af"/>
  <rect x="184" y="230" width="6" height="8" rx="1" fill="#fbbf24" opacity="0.6"/>
  <rect x="198" y="230" width="6" height="8" rx="1" fill="#f5d547" opacity="0.5"/>
  <rect x="184" y="250" width="6" height="8" rx="1" fill="#f5d547" opacity="0.4"/>
  <rect x="198" y="250" width="6" height="8" rx="1" fill="#fbbf24" opacity="0.7"/>
  <!-- Right buildings -->
  <rect x="294" y="210" width="44" height="170" rx="2" fill="#9ca3af"/>
  <rect x="304" y="220" width="6" height="8" rx="1" fill="#f5d547" opacity="0.6"/>
  <rect x="318" y="220" width="6" height="8" rx="1" fill="#fbbf24" opacity="0.5"/>
  <rect x="304" y="240" width="6" height="8" rx="1" fill="#fbbf24" opacity="0.4"/>
  <rect x="318" y="240" width="6" height="8" rx="1" fill="#f5d547" opacity="0.7"/>
  <rect x="346" y="180" width="50" height="200" rx="2" fill="#a1a1aa"/>
  <rect x="356" y="190" width="7" height="8" rx="1" fill="#fbbf24" opacity="0.7"/>
  <rect x="372" y="190" width="7" height="8" rx="1" fill="#f5d547" opacity="0.4"/>
  <rect x="356" y="210" width="7" height="8" rx="1" fill="#f5d547" opacity="0.5"/>
  <rect x="372" y="210" width="7" height="8" rx="1" fill="#fbbf24" opacity="0.6"/>
  <rect x="356" y="230" width="7" height="8" rx="1" fill="#fbbf24" opacity="0.4"/>
  <rect x="372" y="230" width="7" height="8" rx="1" fill="#f5d547" opacity="0.7"/>
  <rect x="405" y="228" width="48" height="152" rx="2" fill="#94a3b8"/>
  <rect x="415" y="238" width="7" height="8" rx="1" fill="#f5d547" opacity="0.6"/>
  <rect x="430" y="238" width="7" height="8" rx="1" fill="#fbbf24" opacity="0.5"/>
  <rect x="415" y="258" width="7" height="8" rx="1" fill="#fbbf24" opacity="0.7"/>
  <rect x="430" y="258" width="7" height="8" rx="1" fill="#f5d547" opacity="0.4"/>
  <!-- Ground -->
  <rect x="0" y="380" width="512" height="132" rx="0" fill="#1e293b"/>
  <!-- NYC Text -->
  <text x="256" y="450" font-family="Arial,Helvetica,sans-serif" font-size="64" font-weight="bold" fill="#f5d547" text-anchor="middle" letter-spacing="16">NYC</text>
  <text x="256" y="480" font-family="Arial,Helvetica,sans-serif" font-size="18" fill="#94a3b8" text-anchor="middle" letter-spacing="4">APRIL 2026</text>
</svg>
